<svg xmlns="http://www.w3.org/2000/svg" viewBox="0 0 960.66 233.13"><defs><style>.cls-1{fill:#fff;stroke-miterlimit:10;}.cls-1,.cls-2{stroke:#1f140f;}.cls-2{fill:none;stroke-linecap:round;stroke-linejoin:round;stroke-width:10px;}.cls-3{font-size:200px;fill:#dd050c;font-family:CenturyGothic-Bold, Century Gothic;font-weight:700;}.cls-4{fill:#df2025;}.cls-5{fill:#1f140f;}</style></defs><g id="Capa_1" data-name="Capa 1"><path class="cls-1" d="M168,62.56" transform="translate(0 -13.99)"/><polyline class="cls-2" points="230.83 9.41 79.9 189.94 5 98.68 79.97 7.84"/><polyline class="cls-2" points="61.72 189.81 213.85 7.84 288.75 99.09 214.16 189.94"/><text class="cls-3" transform="translate(90.53 171.8)">4</text></g><g id="Capa_3" data-name="Capa 3"><path class="cls-4" d="M314.12,111.67V16H323V54.48a37.45,37.45,0,0,1,12.5-10.25,35,35,0,0,1,40.17,7.23A35.6,35.6,0,0,1,386,77.26a35.1,35.1,0,0,1-10.47,25.59,34.12,34.12,0,0,1-25.17,10.6,32.18,32.18,0,0,1-15.28-3.62A35.6,35.6,0,0,1,323,99v12.7Zm35.54-6.79A26.78,26.78,0,0,0,373.32,91a28.24,28.24,0,0,0,0-28,27.38,27.38,0,0,0-10-10.38,26.13,26.13,0,0,0-13.46-3.71A27.71,27.71,0,0,0,336,52.6a26,26,0,0,0-10.07,10,28.54,28.54,0,0,0-3.51,14.16,27.6,27.6,0,0,0,7.88,20.06A26.11,26.11,0,0,0,349.66,104.88Z" transform="translate(0 -13.99)"/><path class="cls-4" d="M399.54,111.67V16h8.89V54.48a37.42,37.42,0,0,1,12.49-10.25,35,35,0,0,1,40.17,7.23,35.56,35.56,0,0,1,10.37,25.8A35.13,35.13,0,0,1,461,102.85a34.14,34.14,0,0,1-25.18,10.6,32.24,32.24,0,0,1-15.28-3.62A35.66,35.66,0,0,1,408.43,99v12.7Zm35.55-6.79A26.74,26.74,0,0,0,458.74,91a28.17,28.17,0,0,0,0-28,27.23,27.23,0,0,0-10-10.38,26.1,26.1,0,0,0-13.45-3.71,27.71,27.71,0,0,0-13.84,3.71,25.89,25.89,0,0,0-10.07,10,28.54,28.54,0,0,0-3.51,14.16,27.56,27.56,0,0,0,7.88,20.06A26.11,26.11,0,0,0,435.09,104.88Z" transform="translate(0 -13.99)"/><path class="cls-4" d="M484.34,16h8.88V70.48l32-27.87h13l-38,32.94,40.18,36.12H528l-34.78-31.1v31.1h-8.88Z" transform="translate(0 -13.99)"/><path class="cls-5" d="M314.12,207.67V112H323v38.53a37.45,37.45,0,0,1,12.5-10.25,35,35,0,0,1,40.17,7.23A35.6,35.6,0,0,1,386,173.26a35.1,35.1,0,0,1-10.47,25.59,34.12,34.12,0,0,1-25.17,10.6,32.18,32.18,0,0,1-15.28-3.62A35.6,35.6,0,0,1,323,195v12.7Zm35.54-6.79A26.78,26.78,0,0,0,373.32,187a28.24,28.24,0,0,0,0-28,27.38,27.38,0,0,0-10-10.38,26.13,26.13,0,0,0-13.46-3.71A27.71,27.71,0,0,0,336,148.6a26,26,0,0,0-10.07,10,28.54,28.54,0,0,0-3.51,14.16,27.56,27.56,0,0,0,7.88,20.05A26.08,26.08,0,0,0,349.66,200.88Z" transform="translate(0 -13.99)"/><path class="cls-5" d="M431.66,136.83a34.23,34.23,0,0,1,26.46,11.55,37.09,37.09,0,0,1-.55,50.24q-10.08,10.83-25.91,10.83t-26-10.83a37,37,0,0,1-.54-50.18Q415.64,136.83,431.66,136.83Zm0,8.69a25.64,25.64,0,0,0-19.05,8.19,27.41,27.41,0,0,0-8,19.81,28.07,28.07,0,0,0,3.63,14,25.71,25.71,0,0,0,9.81,10,27.92,27.92,0,0,0,27.14,0,25.71,25.71,0,0,0,9.81-10,28.07,28.07,0,0,0,3.63-14,27.32,27.32,0,0,0-8-19.81A25.65,25.65,0,0,0,431.63,145.52Z" transform="translate(0 -13.99)"/><path class="cls-5" d="M513.53,136.83q16,0,26.46,11.55a37.07,37.07,0,0,1-.54,50.24q-10.08,10.83-25.92,10.83t-26-10.83a37,37,0,0,1-.54-50.18Q497.51,136.83,513.53,136.83Zm0,8.69a25.61,25.61,0,0,0-19,8.19,27.37,27.37,0,0,0-8,19.81,28.07,28.07,0,0,0,3.63,14,25.71,25.71,0,0,0,9.81,10,27.92,27.92,0,0,0,27.14,0,25.71,25.71,0,0,0,9.81-10,28.07,28.07,0,0,0,3.63-14,27.31,27.31,0,0,0-8-19.81A25.67,25.67,0,0,0,513.5,145.52Z" transform="translate(0 -13.99)"/><path class="cls-5" d="M570.46,113h8.89v25.65h14.09v7.68H579.35v61.38h-8.89V146.29H558.34v-7.68h12.12Z" transform="translate(0 -13.99)"/><path class="cls-5" d="M670.55,153l-7,4.38q-9.12-12.12-24.91-12.12-12.62,0-21,8.11A26.52,26.52,0,0,0,609.3,173a27.93,27.93,0,0,0,3.83,14.2,26.9,26.9,0,0,0,10.53,10.34,30.6,30.6,0,0,0,15,3.68q15.21,0,24.85-12.13l7,4.64a33.22,33.22,0,0,1-13.3,11.56,42.33,42.33,0,0,1-19,4.12q-16.38,0-27.17-10.41a33.89,33.89,0,0,1-10.79-25.33,36.1,36.1,0,0,1,5.05-18.63,35.54,35.54,0,0,1,13.87-13.43,40.52,40.52,0,0,1,19.74-4.82,42.29,42.29,0,0,1,13.23,2.09A37,37,0,0,1,663,144.38,29.76,29.76,0,0,1,670.55,153Z" transform="translate(0 -13.99)"/><path class="cls-5" d="M753.18,138.61v69.06h-8.76V195.8A38.1,38.1,0,0,1,731.89,206a35,35,0,0,1-40.25-7.21A35.66,35.66,0,0,1,681.27,173a35,35,0,0,1,10.47-25.52,34.13,34.13,0,0,1,25.2-10.6,32.48,32.48,0,0,1,15.39,3.62,35,35,0,0,1,12.09,10.85V138.61Zm-35.51,6.79A26.76,26.76,0,0,0,694,159.28a28,28,0,0,0,0,27.9,27.16,27.16,0,0,0,10.05,10.37,26.28,26.28,0,0,0,13.54,3.71,27.78,27.78,0,0,0,13.82-3.68,25.78,25.78,0,0,0,10.05-10A28.5,28.5,0,0,0,745,173.49a27.47,27.47,0,0,0-7.9-20A26.13,26.13,0,0,0,717.67,145.4Z" transform="translate(0 -13.99)"/><path class="cls-5" d="M769.87,138.61h8.88v11.93a34.43,34.43,0,0,1,9.54-9.65,27,27,0,0,1,14.17-4.06,23.64,23.64,0,0,1,9.53,2,20.46,20.46,0,0,1,7.37,5.23,28,28,0,0,1,5,9.37,32.73,32.73,0,0,1,11.08-12.35,26.23,26.23,0,0,1,14.31-4.22,22.38,22.38,0,0,1,12.64,3.62,21.52,21.52,0,0,1,8.13,10.09q2.67,6.48,2.66,19.42v37.71h-9.07V170q0-11.1-1.59-15.26a13.68,13.68,0,0,0-5.41-6.7,16.15,16.15,0,0,0-9.14-2.54,19.9,19.9,0,0,0-11.8,3.81,21.92,21.92,0,0,0-7.81,10.16q-2.48,6.34-2.47,21.2v27H817V172.31q0-12.5-1.56-17a14.26,14.26,0,0,0-5.43-7.17,15.68,15.68,0,0,0-9.2-2.7,19.81,19.81,0,0,0-11.52,3.72,22,22,0,0,0-7.94,10q-2.57,6.29-2.57,19.24v29.26h-8.88Z" transform="translate(0 -13.99)"/><path class="cls-5" d="M888.75,138.61h8.88V151.3a35.73,35.73,0,0,1,12.11-10.85A32.13,32.13,0,0,1,925,136.83a34.1,34.1,0,0,1,25.17,10.6A35,35,0,0,1,960.66,173a35.65,35.65,0,0,1-10.36,25.86A34.9,34.9,0,0,1,910.12,206a38.28,38.28,0,0,1-12.49-10.22v37.13h-8.88Zm35.54,6.79a26.1,26.1,0,0,0-19.41,8q-7.89,8.06-7.88,20a28.49,28.49,0,0,0,3.51,14.14,25.63,25.63,0,0,0,10.07,10,27.88,27.88,0,0,0,13.84,3.68,26.16,26.16,0,0,0,13.46-3.71,27.18,27.18,0,0,0,10-10.37,28,28,0,0,0,0-27.9,26.76,26.76,0,0,0-23.66-13.88Z" transform="translate(0 -13.99)"/></g></svg>