<svg xmlns="http://www.w3.org/2000/svg" viewBox="0 0 337.28 45.26"><defs><style>.cls-1{fill:#1f140f;}.cls-2{fill:#e12125;}</style></defs><g id="Capa_2" data-name="Capa 2"><g id="Capa_4" data-name="Capa 4"><path class="cls-1" d="M45.38,61.44,42,64.05a18.52,18.52,0,0,0-6.75-5.55,19.76,19.76,0,0,0-8.66-1.89A19.12,19.12,0,0,0,17,59.08a17.77,17.77,0,0,0-6.81,6.65,18.45,18.45,0,0,0-2.42,9.39A17.62,17.62,0,0,0,13.2,88.28a18.75,18.75,0,0,0,13.64,5.27A19.16,19.16,0,0,0,42,86.46L45.38,89a21.74,21.74,0,0,1-8,6.34,25.13,25.13,0,0,1-10.77,2.24q-11.31,0-17.84-7.53A22.71,22.71,0,0,1,3.25,74.74,21.32,21.32,0,0,1,9.89,58.82a22.84,22.84,0,0,1,16.62-6.46,24.4,24.4,0,0,1,10.9,2.39A21.16,21.16,0,0,1,45.38,61.44Z" transform="translate(-3.25 -52.36)"/><path class="cls-1" d="M73.05,52.36a22.36,22.36,0,0,1,16.38,6.53A21.76,21.76,0,0,1,96,75,22.48,22.48,0,0,1,73.4,97.62a22.06,22.06,0,0,1-16.19-6.56,21.59,21.59,0,0,1-6.59-15.88,23,23,0,0,1,3-11.51A22.2,22.2,0,0,1,73.05,52.36Zm.19,4.19a18.38,18.38,0,0,0-15.76,9.21,18.59,18.59,0,0,0-2.41,9.41A18.13,18.13,0,0,0,73.24,93.43,18.43,18.43,0,0,0,82.52,91a17.37,17.37,0,0,0,6.66-6.65A18.69,18.69,0,0,0,91.58,75a18.21,18.21,0,0,0-2.4-9.28A17.88,17.88,0,0,0,82.45,59,18.26,18.26,0,0,0,73.24,56.55Z" transform="translate(-3.25 -52.36)"/><path class="cls-1" d="M103.17,96.54V53.44h8.94q9.66,0,14,1.56a18.72,18.72,0,0,1,9.8,7.61,23.19,23.19,0,0,1,3.53,12.92,22.61,22.61,0,0,1-2.8,11.4,18,18,0,0,1-7.26,7.27q-4.47,2.34-12.53,2.34Zm4.13-4.07h5q8.94,0,12.4-1.12a14.25,14.25,0,0,0,7.64-5.69,17.47,17.47,0,0,0,2.79-10,18.47,18.47,0,0,0-3-10.66,15.22,15.22,0,0,0-8.41-6.06q-4.05-1.23-13.33-1.23h-3Z" transform="translate(-3.25 -52.36)"/><path class="cls-1" d="M146.35,53.44h24.7v4.22H150.66V71.17h20.21v4.22H150.66V92.32h20.21v4.22H146.35Z" transform="translate(-3.25 -52.36)"/><path class="cls-2" d="M197.3,52.36h.87V82.42h5.21v4.1h-5.21v10h-4.28v-10H173.27Zm-3.41,30.06V64.32l-12.76,18.1Z" transform="translate(-3.25 -52.36)"/><path class="cls-1" d="M222.86,53.44h4.31v29.1q0,6.7-1,9.33a8.8,8.8,0,0,1-3.47,4.19,10.69,10.69,0,0,1-5.89,1.56,13.64,13.64,0,0,1-5.14-1A21.67,21.67,0,0,1,206,93.05l2.28-3.42A34.13,34.13,0,0,0,213.91,93a7.08,7.08,0,0,0,2.87.64,5.56,5.56,0,0,0,3.37-1.11,5.88,5.88,0,0,0,2.11-3,27.55,27.55,0,0,0,.6-7.15Z" transform="translate(-3.25 -52.36)"/><path class="cls-1" d="M256.68,52.36a22.39,22.39,0,0,1,16.39,6.53A21.79,21.79,0,0,1,279.66,75a22.8,22.8,0,0,1-38.81,16.08,21.56,21.56,0,0,1-6.6-15.88,22.87,22.87,0,0,1,3-11.51,22.17,22.17,0,0,1,19.42-11.31Zm.19,4.19a18.38,18.38,0,0,0-15.76,9.21,18.69,18.69,0,0,0-2.4,9.41,18.11,18.11,0,0,0,18.16,18.26A18.49,18.49,0,0,0,266.16,91a17.51,17.51,0,0,0,6.66-6.65A18.79,18.79,0,0,0,275.21,75a18.3,18.3,0,0,0-2.39-9.28A17.91,17.91,0,0,0,266.08,59,18.2,18.2,0,0,0,256.87,56.55Z" transform="translate(-3.25 -52.36)"/><path class="cls-1" d="M286.92,53.44h8.5a20.17,20.17,0,0,1,7.88,1.22,9.71,9.71,0,0,1,4.35,3.74,10.26,10.26,0,0,1,1.6,5.59,10.06,10.06,0,0,1-1.4,5.23A10.42,10.42,0,0,1,303.74,73a16.2,16.2,0,0,1,5.17,2.68,10.84,10.84,0,0,1,2.81,3.72,11.08,11.08,0,0,1,1,4.74A11.61,11.61,0,0,1,308.94,93q-3.79,3.58-10.18,3.59H286.92Zm4.22,4.22v13.8h2.47a19.44,19.44,0,0,0,6.6-.83A7.15,7.15,0,0,0,303.56,68a6.93,6.93,0,0,0,1.23-4,5.65,5.65,0,0,0-2.07-4.64c-1.38-1.13-3.57-1.69-6.59-1.69Zm0,18.14V92.32h5.34a19.32,19.32,0,0,0,6.93-.92,7.87,7.87,0,0,0,3.53-2.89,7.52,7.52,0,0,0-.54-9.26,9.69,9.69,0,0,0-5.16-2.93,38,38,0,0,0-7.66-.52Z" transform="translate(-3.25 -52.36)"/><path class="cls-1" d="M315.3,88.51l3.67-2.2q3.86,7.13,8.93,7.12a8.44,8.44,0,0,0,4.07-1,7.14,7.14,0,0,0,2.91-2.71,7,7,0,0,0,1-3.6,7.35,7.35,0,0,0-1.46-4.25A35.06,35.06,0,0,0,327,75q-5.38-4.08-6.71-5.89A10.78,10.78,0,0,1,318,62.47a10,10,0,0,1,1.35-5.13,9.65,9.65,0,0,1,3.79-3.65,10.91,10.91,0,0,1,5.32-1.33,11.31,11.31,0,0,1,5.7,1.51,19.85,19.85,0,0,1,5.61,5.55l-3.52,2.67a16.81,16.81,0,0,0-4.14-4.25,7.12,7.12,0,0,0-3.74-1,5.88,5.88,0,0,0-4.26,1.59,5.14,5.14,0,0,0-1.66,3.89,6.68,6.68,0,0,0,.59,2.73,10,10,0,0,0,2.14,2.87c.56.54,2.42,2,5.56,4.3q5.6,4.14,7.68,7.36A11.81,11.81,0,0,1,340.53,86,11,11,0,0,1,337,94.17a12,12,0,0,1-8.66,3.45,12.77,12.77,0,0,1-7.12-2.09A19.24,19.24,0,0,1,315.3,88.51Z" transform="translate(-3.25 -52.36)"/></g></g></svg>